<?xml version="1.0" standalone="no"?>
<!DOCTYPE svg PUBLIC "-//W3C//DTD SVG 20010904//EN"
 "http://www.w3.org/TR/2001/REC-SVG-20010904/DTD/svg10.dtd">
<svg version="1.0" xmlns="http://www.w3.org/2000/svg"
 width="1674.000000pt" height="358.000000pt" viewBox="0 0 1674.000000 358.000000"
 preserveAspectRatio="xMidYMid meet">

<g transform="translate(0.000000,358.000000) scale(0.100000,-0.100000)"
fill="#ffffff" stroke="none">
<path d="M 1900 2580 l0 -370 -198 0 c-141 0 -201 -3 -210 -12 -16 -16 -16 -130 0
-146 8 -8 54 -12 140 -12 l128 0 0 -325 0 -325 -128 0 c-86 0 -132 -4 -140
-12 -9 -9 -12 -116 -12 -420 l0 -408 -330 0 -330 0 0 1200 0 1200 540 0 540 0
0 -370z m970 -830 l0 -1200 -335 0 -335 0 0 1200 0 1200 335 0 335 0 0 -1200z
m1419 12 c156 -653 286 -1193 289 -1200 3 -10 -65 -12 -334 -10 l-338 3 -283
1180 c-155 649 -282 1188 -282 1198 -1 16 21 17 332 17 l332 0 284 -1188z
m310 81 c0 -648 -4 -1096 -10 -1078 -4 17 -94 386 -199 822 l-190 791 0 286 0
286 200 0 200 0 -1 -1107z m1101 -93 l0 -1200 -335 0 -335 0 0 1200 0 1200
335 0 335 0 0 -1200z m856 1148 c-13 -29 -112 -238 -220 -465 -108 -227 -196
-415 -196 -419 0 -6 616 -1296 676 -1416 l24 -48 -358 0 -359 0 -176 370 -177
370 0 618 0 617 102 213 102 212 303 0 303 0 -24 -52z m2304 -1148 l0 -1200
-335 0 -335 0 0 1200 0 1200 335 0 335 0 0 -1200z m496 1170 c55 -51 54 -39
54 -705 0 -675 1 -669 -59 -699 -24 -13 -68 -16 -226 -16 l-195 0 0 293 0 293
35 13 c45 16 65 55 65 124 0 64 -24 102 -70 112 l-30 7 0 304 0 305 199 -3
c197 -3 200 -3 227 -28z m1084 -784 c0 -727 2 -816 16 -830 13 -13 42 -16 165
-16 l149 0 0 -370 0 -370 -490 0 -490 0 0 1200 0 1200 325 0 325 0 0 -814z
m1350 446 c0 -356 -1 -368 -20 -380 -20 -12 -20 -23 -20 -452 0 -429 0 -440
20 -452 19 -12 20 -24 20 -380 l0 -368 -222 1 c-246 1 -269 5 -324 58 -66 65
-64 25 -64 1141 0 1116 -2 1076 64 1141 55 53 78 57 324 58 l222 1 0 -368z
m581 345 c28 -15 54 -40 72 -68 56 -92 57 -99 57 -1109 0 -1010 -1 -1017 -57
-1109 -18 -28 -44 -53 -72 -68 -42 -22 -53 -23 -268 -23 l-223 0 0 368 c0 356
1 368 20 380 20 12 20 23 20 458 0 437 0 446 -20 451 -20 5 -20 14 -20 374 l0
369 223 0 c215 0 226 -1 268 -23z m1387 -590 l222 -613 0 -587 0 -587 -335 0
-335 0 0 583 0 582 -205 565 c-113 311 -214 589 -225 618 l-20 52 338 0 338 0
222 -613z m553 566 c-10 -27 -87 -236 -171 -465 -84 -230 -156 -418 -159 -418
-3 0 -58 145 -123 322 l-116 321 49 135 c27 74 52 138 55 143 3 5 113 9 244 9
l240 0 -19 -47z m999 -321 c0 -356 -1 -368 -20 -380 -20 -12 -20 -23 -20 -452
0 -429 0 -440 20 -452 19 -12 20 -24 20 -380 l0 -368 -305 0 -305 0 0 1200 0
1200 305 0 305 0 0 -368z m572 339 c44 -31 76 -76 94 -137 21 -70 21 -1998 0
-2068 -18 -61 -50 -106 -94 -137 -35 -23 -41 -24 -269 -27 l-233 -3 0 368 c0
357 1 369 20 381 20 12 20 23 20 446 0 239 -3 441 -6 450 -3 9 -12 16 -20 16
-12 0 -14 61 -14 371 l0 370 233 -3 c228 -3 234 -4 269 -27z m-12322 -1278
c137 -589 250 -1077 250 -1082 0 -8 -82 -11 -255 -11 l-255 0 1 1093 c0 600 2
1088 5 1082 2 -5 116 -492 254 -1082z"/>
</g>
</svg>
